# xmcd
# 
# Track frame offsets:
#     150
#     16630
#     34020
#     50810
#     72482
#     87130
#     96580
#     109007
#     123252
#     139000
#     153637
#     171912
# 
# Disc length: 2417
# 
# Revision: 4
# Processed by: cddbd v1.5.2PL0 Copyright (c) Steve Scherf et al.
# Submitted via: BonkEnc v1.0
# 
DISCID=a0096f0c
DTITLE=山下達郎 - Big Wave
DYEAR=1984
DGENRE=JPop
TTITLE0=THE THEME FROM BIG WAVE
TTITLE1=JODY
TTITLE2=ONLY WITH YOU
TTITLE3=MAGIC WAYS
TTITLE4=YOUR EYES
TTITLE5=I LOVE YOU…Part II
TTITLE6=GIRLS ON THE BEACH
TTITLE7=PLEASE LET ME WONDER
TTITLE8=DARLIN'
TTITLE9=GUESS I'M DUMB
TTITLE10=THIS COULD BE THE NIGHT
TTITLE11=I LOVE YOU…Part I
EXTD=YEAR: 1984
EXTT0=
EXTT1=
EXTT2=
EXTT3=
EXTT4=
EXTT5=
EXTT6=
EXTT7=
EXTT8=
EXTT9=
EXTT10=
EXTT11=
PLAYORDER=
